{
    "asset" : {
        "generator" : "Khronos glTF Blender I/O v3.4.50",
        "version" : "2.0"
    },
    "scene" : 0,
    "scenes" : [
        {
            "name" : "Scene",
            "nodes" : [
                0,
                1
            ]
        }
    ],
    "nodes" : [
        {
            "mesh" : 0,
            "name" : "sofa",
            "scale" : [
                3.0584516525268555,
                0.96651691198349,
                0.96651691198349
            ],
            "translation" : [
                0.0700075626373291,
                1.0656191110610962,
                -0.07567811012268066
            ]
        },
        {
            "mesh" : 1,
            "name" : "L\u1eadp Ph\u01b0\u01a1ng",
            "scale" : [
                0.9680666327476501,
                0.9680666327476501,
                0.9680666327476501
            ],
            "translation" : [
                0.761661171913147,
                0.3431222438812256,
                0.11939716339111328
            ]
        }
    ],
    "materials" : [
        {
            "doubleSided" : true,
            "name" : "Material.001",
            "pbrMetallicRoughness" : {
                "baseColorFactor" : [
                    0.800000011920929,
                    0.800000011920929,
                    0.800000011920929,
                    1
                ],
                "metallicFactor" : 0,
                "roughnessFactor" : 0.5
            }
        }
    ],
    "meshes" : [
        {
            "name" : "L\u1eadp Ph\u01b0\u01a1ng.001",
            "primitives" : [
                {
                    "attributes" : {
                        "POSITION" : 0,
                        "TEXCOORD_0" : 1,
                        "NORMAL" : 2
                    },
                    "indices" : 3,
                    "material" : 0
                }
            ]
        },
        {
            "name" : "L\u1eadp Ph\u01b0\u01a1ng.003",
            "primitives" : [
                {
                    "attributes" : {
                        "POSITION" : 4,
                        "TEXCOORD_0" : 5,
                        "NORMAL" : 6
                    },
                    "indices" : 7
                }
            ]
        }
    ],
    "accessors" : [
        {
            "bufferView" : 0,
            "componentType" : 5126,
            "count" : 503,
            "max" : [
                1,
                0.2082676887512207,
                1
            ],
            "min" : [
                -1,
                -1,
                -1
            ],
            "type" : "VEC3"
        },
        {
            "bufferView" : 1,
            "componentType" : 5126,
            "count" : 503,
            "type" : "VEC2"
        },
        {
            "bufferView" : 2,
            "componentType" : 5126,
            "count" : 503,
            "type" : "VEC3"
        },
        {
            "bufferView" : 3,
            "componentType" : 5123,
            "count" : 1164,
            "type" : "SCALAR"
        },
        {
            "bufferView" : 4,
            "componentType" : 5126,
            "count" : 1339,
            "max" : [
                1.8689851760864258,
                1.8526930809020996,
                0.4598442614078522
            ],
            "min" : [
                -3.318373918533325,
                0.16755647957324982,
                -1.0574499368667603
            ],
            "type" : "VEC3"
        },
        {
            "bufferView" : 5,
            "componentType" : 5126,
            "count" : 1339,
            "type" : "VEC2"
        },
        {
            "bufferView" : 6,
            "componentType" : 5126,
            "count" : 1339,
            "type" : "VEC3"
        },
        {
            "bufferView" : 7,
            "componentType" : 5123,
            "count" : 2304,
            "type" : "SCALAR"
        }
    ],
    "bufferViews" : [
        {
            "buffer" : 0,
            "byteLength" : 6036,
            "byteOffset" : 0,
            "target" : 34962
        },
        {
            "buffer" : 0,
            "byteLength" : 4024,
            "byteOffset" : 6036,
            "target" : 34962
        },
        {
            "buffer" : 0,
            "byteLength" : 6036,
            "byteOffset" : 10060,
            "target" : 34962
        },
        {
            "buffer" : 0,
            "byteLength" : 2328,
            "byteOffset" : 16096,
            "target" : 34963
        },
        {
            "buffer" : 0,
            "byteLength" : 16068,
            "byteOffset" : 18424,
            "target" : 34962
        },
        {
            "buffer" : 0,
            "byteLength" : 10712,
            "byteOffset" : 34492,
            "target" : 34962
        },
        {
            "buffer" : 0,
            "byteLength" : 16068,
            "byteOffset" : 45204,
            "target" : 34962
        },
        {
            "buffer" : 0,
            "byteLength" : 4608,
            "byteOffset" : 61272,
            "target" : 34963
        }
    ],
    "buffers" : [
        {
            "byteLength" : 65880,
            "uri" : "data:application/octet-stream;base64,"
        }
    ]
}
