{
    "asset" : {
        "generator" : "Khronos glTF Blender I/O v3.4.50",
        "version" : "2.0"
    },
    "extensionsUsed" : [
        "KHR_materials_unlit"
    ],
    "scene" : 0,
    "scenes" : [
        {
            "name" : "Scene",
            "nodes" : [
                9
            ]
        }
    ],
    "nodes" : [
        {
            "mesh" : 0,
            "name" : "Cube.001",
            "translation" : [
                0,
                0.22624240815639496,
                0
            ]
        },
        {
            "mesh" : 1,
            "name" : "Cube.002",
            "translation" : [
                0.9034811854362488,
                0.015126931481063366,
                0.4544048309326172
            ]
        },
        {
            "mesh" : 2,
            "name" : "Cube.003",
            "translation" : [
                0,
                0.34052738547325134,
                0
            ]
        },
        {
            "mesh" : 3,
            "name" : "Grid",
            "rotation" : [
                0,
                -0.3564254343509674,
                0,
                0.934323787689209
            ],
            "translation" : [
                -0.8342653512954712,
                0.5959705710411072,
                -0.2715054452419281
            ]
        },
        {
            "mesh" : 4,
            "name" : "Grid.001",
            "rotation" : [
                0,
                0.7071068286895752,
                0,
                0.7071068286895752
            ],
            "translation" : [
                -0.43904900550842285,
                0.6129567623138428,
                -0.277898371219635
            ]
        },
        {
            "mesh" : 5,
            "name" : "Grid.002",
            "rotation" : [
                0,
                0.7758978605270386,
                0,
                0.6308585405349731
            ],
            "translation" : [
                0.0516059473156929,
                0.6103067398071289,
                -0.2842378616333008
            ]
        },
        {
            "mesh" : 6,
            "name" : "Grid.003",
            "rotation" : [
                0,
                0.6724629998207092,
                0,
                0.7401307225227356
            ],
            "translation" : [
                0.5639044046401978,
                0.5816441774368286,
                -0.3709981143474579
            ]
        },
        {
            "mesh" : 7,
            "name" : "Grid.004",
            "rotation" : [
                0,
                0.4797523021697998,
                0,
                0.877403974533081
            ],
            "translation" : [
                0.8757230639457703,
                0.6272405385971069,
                -0.12704703211784363
            ]
        },
        {
            "mesh" : 8,
            "name" : "Plane.001",
            "rotation" : [
                0.11290528625249863,
                -0.6496430039405823,
                -0.26011693477630615,
                0.7053762078285217
            ],
            "scale" : [
                0.2558425962924957,
                0.6325006484985352,
                0.6325005888938904
            ],
            "translation" : [
                0.9465920925140381,
                0.936811089515686,
                0.01826891303062439
            ]
        },
        {
            "children" : [
                0,
                1,
                2,
                3,
                4,
                5,
                6,
                7,
                8
            ],
            "name" : "Sofa 3"
        }
    ],
    "materials" : [
        {
            "doubleSided" : true,
            "extensions" : {
                "KHR_materials_unlit" : {}
            },
            "name" : "Material.003",
            "pbrMetallicRoughness" : {
                "baseColorFactor" : [
                    0.7454474568367004,
                    0.8000000715255737,
                    0.6429586410522461,
                    1
                ],
                "metallicFactor" : 0,
                "roughnessFactor" : 0.9
            }
        },
        {
            "doubleSided" : true,
            "name" : "Material.004",
            "pbrMetallicRoughness" : {
                "baseColorFactor" : [
                    0.08320029079914093,
                    0.08320029079914093,
                    0.08320029079914093,
                    1
                ],
                "roughnessFactor" : 0.3499999940395355
            }
        }
    ],
    "meshes" : [
        {
            "name" : "Cube.006",
            "primitives" : [
                {
                    "attributes" : {
                        "POSITION" : 0,
                        "TEXCOORD_0" : 1,
                        "NORMAL" : 2
                    },
                    "indices" : 3,
                    "material" : 0
                }
            ]
        },
        {
            "name" : "Cube.005",
            "primitives" : [
                {
                    "attributes" : {
                        "POSITION" : 4,
                        "TEXCOORD_0" : 5,
                        "NORMAL" : 6
                    },
                    "indices" : 7,
                    "material" : 1
                }
            ]
        },
        {
            "name" : "Cube.001",
            "primitives" : [
                {
                    "attributes" : {
                        "POSITION" : 8,
                        "TEXCOORD_0" : 9,
                        "NORMAL" : 10
                    },
                    "indices" : 11,
                    "material" : 0
                }
            ]
        },
        {
            "name" : "Grid.009",
            "primitives" : [
                {
                    "attributes" : {
                        "POSITION" : 12,
                        "TEXCOORD_0" : 13,
                        "NORMAL" : 14
                    },
                    "indices" : 15,
                    "material" : 0
                }
            ]
        },
        {
            "name" : "Grid.008",
            "primitives" : [
                {
                    "attributes" : {
                        "POSITION" : 16,
                        "TEXCOORD_0" : 17,
                        "NORMAL" : 18
                    },
                    "indices" : 19,
                    "material" : 0
                }
            ]
        },
        {
            "name" : "Grid.007",
            "primitives" : [
                {
                    "attributes" : {
                        "POSITION" : 20,
                        "TEXCOORD_0" : 21,
                        "NORMAL" : 22
                    },
                    "indices" : 23,
                    "material" : 0
                }
            ]
        },
        {
            "name" : "Grid.006",
            "primitives" : [
                {
                    "attributes" : {
                        "POSITION" : 24,
                        "TEXCOORD_0" : 25,
                        "NORMAL" : 26
                    },
                    "indices" : 27,
                    "material" : 0
                }
            ]
        },
        {
            "name" : "Grid.005",
            "primitives" : [
                {
                    "attributes" : {
                        "POSITION" : 28,
                        "TEXCOORD_0" : 29,
                        "NORMAL" : 30
                    },
                    "indices" : 31,
                    "material" : 0
                }
            ]
        },
        {
            "name" : "Plane.002",
            "primitives" : [
                {
                    "attributes" : {
                        "POSITION" : 32,
                        "TEXCOORD_0" : 33,
                        "NORMAL" : 34
                    },
                    "indices" : 35,
                    "material" : 0
                }
            ]
        }
    ],
    "accessors" : [
        {
            "bufferView" : 0,
            "componentType" : 5126,
            "count" : 2812,
            "max" : [
                1.0177363157272339,
                0.42893004417419434,
                0.4745616316795349
            ],
            "min" : [
                -1.0177363157272339,
                -0.026587722823023796,
                -0.47890403866767883
            ],
            "type" : "VEC3"
        },
        {
            "bufferView" : 1,
            "componentType" : 5126,
            "count" : 2812,
            "type" : "VEC2"
        },
        {
            "bufferView" : 2,
            "componentType" : 5126,
            "count" : 2812,
            "type" : "VEC3"
        },
        {
            "bufferView" : 3,
            "componentType" : 5123,
            "count" : 15666,
            "type" : "SCALAR"
        },
        {
            "bufferView" : 4,
            "componentType" : 5126,
            "count" : 1497,
            "max" : [
                0.024836838245391846,
                0.18718594312667847,
                0.015126960352063179
            ],
            "min" : [
                -1.8379653692245483,
                -0.015126931481063366,
                -0.8517045974731445
            ],
            "type" : "VEC3"
        },
        {
            "bufferView" : 5,
            "componentType" : 5126,
            "count" : 1497,
            "type" : "VEC2"
        },
        {
            "bufferView" : 6,
            "componentType" : 5126,
            "count" : 1497,
            "type" : "VEC3"
        },
        {
            "bufferView" : 7,
            "componentType" : 5123,
            "count" : 4770,
            "type" : "SCALAR"
        },
        {
            "bufferView" : 8,
            "componentType" : 5126,
            "count" : 1104,
            "max" : [
                0.8922691345214844,
                0.12980598211288452,
                0.5082353353500366
            ],
            "min" : [
                -0.8920870423316956,
                -0.08634587377309799,
                -0.37336453795433044
            ],
            "type" : "VEC3"
        },
        {
            "bufferView" : 9,
            "componentType" : 5126,
            "count" : 1104,
            "type" : "VEC2"
        },
        {
            "bufferView" : 10,
            "componentType" : 5126,
            "count" : 1104,
            "type" : "VEC3"
        },
        {
            "bufferView" : 11,
            "componentType" : 5123,
            "count" : 6048,
            "type" : "SCALAR"
        },
        {
            "bufferView" : 12,
            "componentType" : 5126,
            "count" : 3387,
            "max" : [
                0.23455633223056793,
                0.14980322122573853,
                0.29540586471557617
            ],
            "min" : [
                -0.27053654193878174,
                -0.188712477684021,
                -0.29738909006118774
            ],
            "type" : "VEC3"
        },
        {
            "bufferView" : 13,
            "componentType" : 5126,
            "count" : 3387,
            "type" : "VEC2"
        },
        {
            "bufferView" : 14,
            "componentType" : 5126,
            "count" : 3387,
            "type" : "VEC3"
        },
        {
            "bufferView" : 15,
            "componentType" : 5123,
            "count" : 19026,
            "type" : "SCALAR"
        },
        {
            "bufferView" : 16,
            "componentType" : 5126,
            "count" : 3362,
            "max" : [
                0.26718899607658386,
                0.17126047611236572,
                0.29586362838745117
            ],
            "min" : [
                -0.2790520489215851,
                -0.18235188722610474,
                -0.3140428960323334
            ],
            "type" : "VEC3"
        },
        {
            "bufferView" : 17,
            "componentType" : 5126,
            "count" : 3362,
            "type" : "VEC2"
        },
        {
            "bufferView" : 18,
            "componentType" : 5126,
            "count" : 3362,
            "type" : "VEC3"
        },
        {
            "bufferView" : 19,
            "componentType" : 5123,
            "count" : 19200,
            "type" : "SCALAR"
        },
        {
            "bufferView" : 20,
            "componentType" : 5126,
            "count" : 3362,
            "max" : [
                0.2571825385093689,
                0.18875133991241455,
                0.2909158170223236
            ],
            "min" : [
                -0.268143892288208,
                -0.18106597661972046,
                -0.29420822858810425
            ],
            "type" : "VEC3"
        },
        {
            "bufferView" : 21,
            "componentType" : 5126,
            "count" : 3362,
            "type" : "VEC2"
        },
        {
            "bufferView" : 22,
            "componentType" : 5126,
            "count" : 3362,
            "type" : "VEC3"
        },
        {
            "bufferView" : 23,
            "componentType" : 5123,
            "count" : 19200,
            "type" : "SCALAR"
        },
        {
            "bufferView" : 24,
            "componentType" : 5126,
            "count" : 3362,
            "max" : [
                0.2367294430732727,
                0.14168599247932434,
                0.30987247824668884
            ],
            "min" : [
                -0.2745913863182068,
                -0.16339007019996643,
                -0.3144828975200653
            ],
            "type" : "VEC3"
        },
        {
            "bufferView" : 25,
            "componentType" : 5126,
            "count" : 3362,
            "type" : "VEC2"
        },
        {
            "bufferView" : 26,
            "componentType" : 5126,
            "count" : 3362,
            "type" : "VEC3"
        },
        {
            "bufferView" : 27,
            "componentType" : 5123,
            "count" : 19200,
            "type" : "SCALAR"
        },
        {
            "bufferView" : 28,
            "componentType" : 5126,
            "count" : 3362,
            "max" : [
                0.2790863513946533,
                0.16705259680747986,
                0.2761918008327484
            ],
            "min" : [
                -0.3092398941516876,
                -0.19126185774803162,
                -0.31809380650520325
            ],
            "type" : "VEC3"
        },
        {
            "bufferView" : 29,
            "componentType" : 5126,
            "count" : 3362,
            "type" : "VEC2"
        },
        {
            "bufferView" : 30,
            "componentType" : 5126,
            "count" : 3362,
            "type" : "VEC3"
        },
        {
            "bufferView" : 31,
            "componentType" : 5123,
            "count" : 19200,
            "type" : "SCALAR"
        },
        {
            "bufferView" : 32,
            "componentType" : 5126,
            "count" : 4633,
            "max" : [
                3.5036730766296387,
                0.013176679611206055,
                0.20562982559204102
            ],
            "min" : [
                0.8500010967254639,
                -1.248377799987793,
                -0.24023520946502686
            ],
            "type" : "VEC3"
        },
        {
            "bufferView" : 33,
            "componentType" : 5126,
            "count" : 4633,
            "type" : "VEC2"
        },
        {
            "bufferView" : 34,
            "componentType" : 5126,
            "count" : 4633,
            "type" : "VEC3"
        },
        {
            "bufferView" : 35,
            "componentType" : 5123,
            "count" : 26880,
            "type" : "SCALAR"
        }
    ],
    "bufferViews" : [
        {
            "buffer" : 0,
            "byteLength" : 33744,
            "byteOffset" : 0,
            "target" : 34962
        },
        {
            "buffer" : 0,
            "byteLength" : 22496,
            "byteOffset" : 33744,
            "target" : 34962
        },
        {
            "buffer" : 0,
            "byteLength" : 33744,
            "byteOffset" : 56240,
            "target" : 34962
        },
        {
            "buffer" : 0,
            "byteLength" : 31332,
            "byteOffset" : 89984,
            "target" : 34963
        },
        {
            "buffer" : 0,
            "byteLength" : 17964,
            "byteOffset" : 121316,
            "target" : 34962
        },
        {
            "buffer" : 0,
            "byteLength" : 11976,
            "byteOffset" : 139280,
            "target" : 34962
        },
        {
            "buffer" : 0,
            "byteLength" : 17964,
            "byteOffset" : 151256,
            "target" : 34962
        },
        {
            "buffer" : 0,
            "byteLength" : 9540,
            "byteOffset" : 169220,
            "target" : 34963
        },
        {
            "buffer" : 0,
            "byteLength" : 13248,
            "byteOffset" : 178760,
            "target" : 34962
        },
        {
            "buffer" : 0,
            "byteLength" : 8832,
            "byteOffset" : 192008,
            "target" : 34962
        },
        {
            "buffer" : 0,
            "byteLength" : 13248,
            "byteOffset" : 200840,
            "target" : 34962
        },
        {
            "buffer" : 0,
            "byteLength" : 12096,
            "byteOffset" : 214088,
            "target" : 34963
        },
        {
            "buffer" : 0,
            "byteLength" : 40644,
            "byteOffset" : 226184,
            "target" : 34962
        },
        {
            "buffer" : 0,
            "byteLength" : 27096,
            "byteOffset" : 266828,
            "target" : 34962
        },
        {
            "buffer" : 0,
            "byteLength" : 40644,
            "byteOffset" : 293924,
            "target" : 34962
        },
        {
            "buffer" : 0,
            "byteLength" : 38052,
            "byteOffset" : 334568,
            "target" : 34963
        },
        {
            "buffer" : 0,
            "byteLength" : 40344,
            "byteOffset" : 372620,
            "target" : 34962
        },
        {
            "buffer" : 0,
            "byteLength" : 26896,
            "byteOffset" : 412964,
            "target" : 34962
        },
        {
            "buffer" : 0,
            "byteLength" : 40344,
            "byteOffset" : 439860,
            "target" : 34962
        },
        {
            "buffer" : 0,
            "byteLength" : 38400,
            "byteOffset" : 480204,
            "target" : 34963
        },
        {
            "buffer" : 0,
            "byteLength" : 40344,
            "byteOffset" : 518604,
            "target" : 34962
        },
        {
            "buffer" : 0,
            "byteLength" : 26896,
            "byteOffset" : 558948,
            "target" : 34962
        },
        {
            "buffer" : 0,
            "byteLength" : 40344,
            "byteOffset" : 585844,
            "target" : 34962
        },
        {
            "buffer" : 0,
            "byteLength" : 38400,
            "byteOffset" : 626188,
            "target" : 34963
        },
        {
            "buffer" : 0,
            "byteLength" : 40344,
            "byteOffset" : 664588,
            "target" : 34962
        },
        {
            "buffer" : 0,
            "byteLength" : 26896,
            "byteOffset" : 704932,
            "target" : 34962
        },
        {
            "buffer" : 0,
            "byteLength" : 40344,
            "byteOffset" : 731828,
            "target" : 34962
        },
        {
            "buffer" : 0,
            "byteLength" : 38400,
            "byteOffset" : 772172,
            "target" : 34963
        },
        {
            "buffer" : 0,
            "byteLength" : 40344,
            "byteOffset" : 810572,
            "target" : 34962
        },
        {
            "buffer" : 0,
            "byteLength" : 26896,
            "byteOffset" : 850916,
            "target" : 34962
        },
        {
            "buffer" : 0,
            "byteLength" : 40344,
            "byteOffset" : 877812,
            "target" : 34962
        },
        {
            "buffer" : 0,
            "byteLength" : 38400,
            "byteOffset" : 918156,
            "target" : 34963
        },
        {
            "buffer" : 0,
            "byteLength" : 55596,
            "byteOffset" : 956556,
            "target" : 34962
        },
        {
            "buffer" : 0,
            "byteLength" : 37064,
            "byteOffset" : 1012152,
            "target" : 34962
        },
        {
            "buffer" : 0,
            "byteLength" : 55596,
            "byteOffset" : 1049216,
            "target" : 34962
        },
        {
            "buffer" : 0,
            "byteLength" : 53760,
            "byteOffset" : 1104812,
            "target" : 34963
        }
    ],
    "buffers" : [
        {
            "byteLength" : 1158572,
            "uri" : "data:application/octet-stream;base64,"
        }
    ]
}
